<?xml version="1.0" ?><svg viewBox="0 0 411.56 331.42" xmlns="http://www.w3.org/2000/svg"><defs><style>.cls-1{fill:none;stroke:#050505;stroke-miterlimit:10;stroke-width:10px;}</style></defs><title/><g data-name="Layer 2" id="Layer_2"><g data-name="Layer 1" id="Layer_1-2"><rect class="cls-1" height="33.27" rx="11" ry="11" transform="translate(-66.98 275.04) rotate(-45)" width="145.38" x="225.82" y="201.74"/><path class="cls-1" d="M330.45,211.87h47.84a3.74,3.74,0,0,1,3.74,3.74v93.31a27.66,27.66,0,0,1-27.66,27.66h0a27.66,27.66,0,0,1-27.66-27.66V215.62A3.74,3.74,0,0,1,330.45,211.87Z" transform="translate(-90.12 330.89) rotate(-45)"/><path class="cls-1" d="M85.25,13.55l8.42,49a7.55,7.55,0,0,0,2.11,4.06L256,226.82a7.41,7.41,0,0,0,10.48.09l20.3-20.3,20.3-20.3a7.41,7.41,0,0,0-.09-10.48L146.77,15.64a7.55,7.55,0,0,0-4.06-2.11l-49-8.42A7.28,7.28,0,0,0,85.25,13.55Z"/><line class="cls-1" x1="286.75" x2="147.1" y1="206.61" y2="66.96"/><polyline class="cls-1" points="131.78 51.64 87.28 7.13 87.27 7.13 86.72 6.57"/><rect class="cls-1" height="33.27" rx="11" ry="11" transform="translate(38.58 452.72) rotate(-135)" width="145.38" x="40.36" y="201.74"/><path class="cls-1" d="M57.2,211.87h0a27.66,27.66,0,0,1,27.66,27.66v93.31a3.74,3.74,0,0,1-3.74,3.74H33.28a3.74,3.74,0,0,1-3.74-3.74V239.53A27.66,27.66,0,0,1,57.2,211.87Z" transform="translate(-96.27 508.58) rotate(-135)"/><path class="cls-1" d="M256.78,125.65l59-59a7.63,7.63,0,0,0,2.11-4.06l8.41-49a7.27,7.27,0,0,0-8.44-8.44l-49,8.43a7.55,7.55,0,0,0-4.06,2.11l-59,59"/><path class="cls-1" d="M205.79,176.65,155.6,226.83a7.41,7.41,0,0,1-10.49.08l-20.3-20.3-20.3-20.3a7.41,7.41,0,0,1,.08-10.48l50.19-50.19"/><line class="cls-1" x1="180.28" x2="124.81" y1="151.14" y2="206.61"/><polyline class="cls-1" points="324.85 6.57 324.3 7.12 231.28 100.15"/></g></g></svg>